<svg width="38" height="46" fill="none" xmlns="http://www.w3.org/2000/svg"><path fill-rule="evenodd" clip-rule="evenodd" d="M19 1C9.059 1 1 9.059 1 19c0 6.867 3.845 12.835 9.5 15.87v1.127C4.274 32.877 0 26.437 0 19 0 8.506 8.507 0 19 0s19 8.506 19 19c0 7.438-4.274 13.877-10.5 16.997V34.87C33.155 31.836 37 25.867 37 19c0-9.941-8.059-18-18-18z" fill="#fff"/><path d="M18.646 45.354a.5.5 0 00.708 0l3.181-3.182a.5.5 0 10-.707-.707L19 44.293l-2.828-2.828a.5.5 0 10-.708.707l3.182 3.182zM18.5 27v18h1V27h-1z" fill="#fff"/></svg>