<svg width="52" height="78" fill="none" xmlns="http://www.w3.org/2000/svg"><path fill-rule="evenodd" clip-rule="evenodd" d="M33 19.926c6.9 3.66 11.6 10.917 11.6 19.271 0 8.355-4.7 15.612-11.6 19.272v1.125c7.471-3.743 12.6-11.47 12.6-20.397 0-8.925-5.129-16.653-12.6-20.396v1.125zM12.6 58.469C5.7 54.809 1 47.552 1 39.197c0-8.354 4.7-15.611 11.6-19.271v-1.125C5.129 22.544 0 30.27 0 39.197s5.129 16.654 12.6 20.397V58.47z" fill="#595F54"/><path d="M28.168 63.263c0 1.264-.42 2.308-1.26 3.132-.84.824-1.876 1.236-3.108 1.236-1.24 0-2.276-.412-3.108-1.236-.84-.824-1.26-1.868-1.26-3.132 0-.76.18-1.46.54-2.1a3.856 3.856 0 011.44-1.512l.828 1.428a2.178 2.178 0 00-.876.888 2.597 2.597 0 00-.324 1.296c0 .816.256 1.476.768 1.98.512.496 1.176.744 1.992.744.808 0 1.468-.248 1.98-.744.512-.504.768-1.164.768-1.98 0-.48-.104-.912-.312-1.296a2.179 2.179 0 00-.876-.888l.828-1.428c.608.36 1.092.86 1.452 1.5a4.31 4.31 0 01.528 2.112zm-4.524-9.705c.424-.736 1.064-1.104 1.92-1.104.712 0 1.296.252 1.752.756.456.504.684 1.124.684 1.86v3.564h-8.4v-3.312c0-.72.224-1.324.672-1.812.44-.496 1.004-.744 1.692-.744.696 0 1.256.264 1.68.792zm-2.496 1.764v1.656h1.848v-1.656a.842.842 0 00-.264-.636.895.895 0 00-.66-.264.918.918 0 00-.66.252.856.856 0 00-.264.648zm5.304-.252a.944.944 0 00-.276-.696 1 1 0 00-.72-.276.944.944 0 00-.696.276.923.923 0 00-.288.696v1.908h1.98V55.07zm-.036-5.358v-3.54H28v5.196h-8.4v-5.136h1.584v3.48h1.788v-3.18h1.56v3.18h1.884zM19.6 41.873c0-.808.272-1.488.816-2.04.544-.552 1.212-.828 2.004-.828s1.46.276 2.004.828c.544.552.816 1.232.816 2.04v1.476H28v1.656h-8.4v-3.132zm4.092 0c0-.352-.12-.644-.36-.876a1.285 1.285 0 00-.912-.348c-.368 0-.672.116-.912.348-.24.232-.36.524-.36.876v1.476h2.544v-1.476zM19.6 33.151v-1.644H28v1.644h-3.48v3.12H28v1.656h-8.4v-1.656h3.336v-3.12H19.6zm0-7.848v-1.656l6.084 2.52c1.632.672 2.404 1.776 2.316 3.312h-1.548c.04-.448-.02-.808-.18-1.08-.168-.28-.436-.512-.804-.696L19.6 30.45v-1.656l4.056-1.836-4.056-1.656zm0-8.108h1.584v2.268H28v1.656h-6.816v2.256H19.6v-6.18zm2.76-4.056c0-.808.272-1.488.816-2.04.544-.552 1.212-.828 2.004-.828s1.46.276 2.004.828c.544.552.816 1.232.816 2.04v3.132h-8.4v-1.656h2.76v-1.476zm4.092 0c0-.352-.12-.644-.36-.876-.24-.232-.544-.348-.912-.348-.36 0-.66.116-.9.348a1.149 1.149 0 00-.372.876v1.476h2.544v-1.476zm24.902 26.415a.5.5 0 000-.707l-3.182-3.182a.5.5 0 10-.707.707l2.828 2.828-2.828 2.829a.5.5 0 10.707.707l3.182-3.182zM40.2 39.7H51v-1H40.2v1z" fill="#fff"/></svg>